<svg width="133" height="28" viewBox="0 0 133 28" fill="none" xmlns="http://www.w3.org/2000/svg">
<g id="logo" clip-path="url(#clip0_10_142)">
<path id="Vector" d="M18.7242 1.09125V6.2473H13.3178V16.1606L5.36657 16.3315V6.2473H0.0111084V0H18.7242V1.09125ZM103.711 14.2082V14.3506L103.951 15.9437H97.2452L97.1344 14.3506C97.0191 13.8926 96.8661 13.5113 96.6666 13.209C96.2499 12.5713 95.5982 12.2579 94.696 12.2579C93.6963 12.2579 92.9825 12.5669 92.5481 13.1827C92.3198 13.5048 92.1535 13.9321 92.0471 14.4602L85.2043 14.607C85.6143 13.0205 86.3702 11.6685 87.4763 10.5422C89.2342 8.74315 91.575 7.84692 94.4899 7.84692C96.2477 7.84692 97.9368 8.2808 99.5616 9.14854C101.178 10.0141 102.363 11.1711 103.104 12.6042C103.337 13.0556 103.538 13.5902 103.709 14.206L103.711 14.2082ZM13.3178 18.2007V27.3645H5.36657V18.0341L13.3178 18.2028V18.2007ZM108.965 6.61105V4.56222H116.493V10.483L115.448 10.6846L116.493 10.7942V11.6334L116.353 11.6619L116.493 11.6794V12.3237L115.861 12.3916L116.493 12.499V13.9343L108.965 14.0964V6.61105ZM116.493 20.3788V21.8097L115.854 21.917L116.493 21.985V22.6292L116.355 22.6467L116.493 22.673V23.5123L115.446 23.6219L116.493 23.8234V27.358H108.965V20.2144L116.493 20.3722V20.3788ZM29.0073 8.5065V11.6619H29.1049C30.907 9.19894 32.789 7.97402 34.7773 7.97402C35.0677 7.97402 35.4756 8.00908 35.9965 8.09235V13.9343C35.0766 13.8072 34.2298 13.7524 33.4606 13.7524C31.5365 13.7524 30.2841 14.4361 29.7011 15.8034L21.8076 15.9743V8.5065H29.0073ZM29.3177 18.5381V27.3645H21.8076V18.3803L29.3177 18.5381ZM51.9099 27.3645V24.8818H51.8035C50.8925 25.9512 50.0102 26.7356 49.1524 27.2396C48.2968 27.7502 47.297 28.0022 46.1399 28.0022C43.8789 28.0022 42.0768 27.0862 40.7246 25.2522C39.5188 23.6131 38.856 21.4394 38.7318 18.7375L46.1289 18.8931C46.335 21.4394 47.3281 22.7103 49.1191 22.7103C50.7417 22.7103 51.655 21.4788 51.8634 19.0136L58.6486 19.156L59.3956 19.1714V27.3623H51.9121L51.9099 27.3645ZM38.8427 15.6106C39.0998 13.588 39.736 11.9117 40.7512 10.5794C42.1211 8.78917 43.9144 7.89294 46.1399 7.89294C47.3236 7.89294 48.3411 8.12302 49.1613 8.59853C49.9925 9.06746 50.857 9.82345 51.7503 10.8643H51.8567V8.5065H59.3934V15.1658L51.6195 15.3345C51.2028 13.8707 50.3339 13.141 49.0105 13.141C47.6872 13.141 46.754 13.908 46.3461 15.4484L38.8405 15.6106H38.8427ZM62.858 8.50869H70.2085L72.0705 14.894L65.4028 15.0387L62.858 8.51088V8.50869ZM74.4224 14.8436L76.2711 8.50869H83.728L81.2985 14.6946L74.4224 14.8436ZM79.3722 19.5965L78.889 20.8258L76.3221 27.3667H70.2085L67.2869 19.8726L67.0808 19.3401L79.3744 19.6009L79.3722 19.5965ZM97.3671 21.6059H103.711C103.589 22.0376 103.445 22.4451 103.286 22.833C101.867 26.2492 98.9897 27.9606 94.6473 27.9606C91.6259 27.9606 89.2408 27.0512 87.483 25.2324C86.4545 24.1762 85.7252 22.8834 85.2996 21.3539C85.1555 20.8346 85.0447 20.2889 84.9671 19.717L91.8144 19.8616C91.8565 20.7053 91.9895 21.3846 92.2089 21.9236C92.6899 23.1047 93.5744 23.5956 94.7559 23.5956C95.3921 23.5956 95.9662 23.4137 96.4605 23.0434C96.7398 22.8374 96.957 22.5985 97.1122 22.3268C97.2363 22.1099 97.3228 21.871 97.3693 21.6081L97.3671 21.6059Z" fill="#544EEE"/>
<path id="Vector_2" opacity="0.3" fill-rule="evenodd" clip-rule="evenodd" d="M133 17.2388C132.909 17.9093 130.619 18.2577 127.653 18.3695L126.006 20.5103C126.343 20.484 126.698 20.5454 126.96 20.6966V21.3277C126.758 21.4438 126.503 21.5074 126.244 21.5183H126.237C126.186 21.5183 126.135 21.5183 126.086 21.5183H125.231L123.861 23.2998C124.218 23.267 124.592 23.3327 124.871 23.4927V24.1522C124.652 24.2793 124.373 24.3451 124.089 24.3516H124.082C124.051 24.3516 124.022 24.3516 123.991 24.3516H123.047L120.857 27.1959C120.46 27.713 120.456 27.7349 119.804 27.7919C119.744 27.7963 119.687 27.8007 119.629 27.8073C119.203 27.8445 119.219 27.8511 119.365 27.5794L120.952 23.9353L120.456 23.8389L121.021 23.7797L121.402 22.9032L120.901 22.8024L121.48 22.7279L121.872 21.8229L121.216 21.7528L121.959 21.6257L122.786 19.7763L0 17.184L122.786 14.5326L121.959 12.6831L121.216 12.556L121.886 12.4837L121.489 11.5831L120.901 11.5064L121.411 11.4056L121.028 10.5313L120.458 10.4722L120.959 10.3757L119.345 6.70536L119.365 6.72289C119.223 6.46213 119.215 6.46871 119.633 6.50596C119.691 6.51034 119.751 6.51692 119.809 6.5213C120.46 6.57827 120.465 6.60018 120.862 7.11732L123.052 9.96378H123.945C124.277 9.94844 124.617 10.0142 124.874 10.1632V10.8228C124.594 10.9827 124.218 11.0485 123.863 11.0156L125.235 12.7971H126.068C126.388 12.7817 126.716 12.8431 126.964 12.9877V13.6188C126.7 13.77 126.348 13.8314 126.011 13.8051L127.658 15.9459C130.622 16.0577 132.914 16.4061 133.004 17.0766V17.2432L133 17.2388Z" fill="#544EEE"/>
</g>
<defs>
<clipPath id="clip0_10_142">
<rect width="133" height="28" fill="white"/>
</clipPath>
</defs>
</svg>
