<svg width="24" height="24" viewBox="0 0 24 24" fill="none" xmlns="http://www.w3.org/2000/svg">
<rect width="24" height="24" rx="5" fill="#544EEE"/>
<path d="M6.91902 14.9935L4.79772 14.6619L3 11.3461L3.98874 10.8901C4.23967 10.7735 4.51674 10.7128 4.79772 10.7128C5.0787 10.7128 5.35577 10.7735 5.60669 10.8901L5.7595 10.973C6.01042 11.0897 6.28749 11.1504 6.56847 11.1504C6.84945 11.1504 7.12652 11.0897 7.37744 10.973L8.39315 10.5171L5.69658 5.5433L6.50555 5.17027C6.80458 5.0346 7.13861 4.97826 7.47034 5.00754C7.80208 5.03682 8.11846 5.15056 8.38416 5.33606L11.9976 7.82296C12.2642 8.01007 12.5822 8.12474 12.9158 8.15404C13.2493 8.18333 13.5851 8.12609 13.8852 7.98876L17.6514 6.28108C18.1327 6.05734 18.6871 6.00709 19.2064 6.14016L20.0783 6.37227C20.2585 6.41841 20.4252 6.50099 20.5664 6.614C20.7076 6.72702 20.8197 6.86763 20.8946 7.02562C20.9695 7.1836 21.0053 7.355 20.9994 7.52734C20.9934 7.69967 20.9459 7.86863 20.8603 8.02192L20.5188 8.65193C20.312 9.03326 19.9794 9.34826 19.557 9.54722L8.01563 14.8277C7.67626 14.9828 7.29248 15.035 6.91902 14.977V14.9935Z" stroke="white" stroke-width="2" stroke-linecap="round" stroke-linejoin="round"/>
<path d="M3 19L21 19" stroke="white" stroke-width="2" stroke-linecap="round" stroke-linejoin="round"/>
</svg>
