<svg width="190" height="40" viewBox="0 0 190 40" fill="none" xmlns="http://www.w3.org/2000/svg">
<g clip-path="url(#clip0_2_62)">
<path d="M26.7486 1.55893V8.92472H19.0251V23.0866L7.66629 23.3307V8.92472H0.015625V0H26.7486V1.55893ZM148.159 20.2974V20.5009L148.501 22.7766H138.921L138.763 20.5009C138.598 19.8466 138.38 19.3019 138.095 18.8699C137.5 17.959 136.569 17.5113 135.28 17.5113C133.852 17.5113 132.832 17.9527 132.211 18.8324C131.885 19.2925 131.648 19.903 131.496 20.6574L121.72 20.8671C122.306 18.6007 123.386 16.6693 124.966 15.0603C127.477 12.4902 130.821 11.2099 134.985 11.2099C137.496 11.2099 139.909 11.8297 142.231 13.0693C144.539 14.3058 146.233 15.9587 147.291 18.0059C147.623 18.6508 147.912 19.4146 148.155 20.2943L148.159 20.2974ZM19.0251 26.0009V39.0922H7.66629V25.763L19.0251 26.0041V26.0009ZM155.664 9.44436V6.51745H166.418V14.9757L164.926 15.2637L166.418 15.4203V16.6192L166.218 16.6599L166.418 16.6849V17.6053L165.515 17.7023L166.418 17.8557V19.9061L155.664 20.1377V9.44436ZM166.418 29.1125V31.1567L165.506 31.3101L166.418 31.4071V32.3274L166.221 32.3525L166.418 32.39V33.589L164.923 33.7455L166.418 34.0335V39.0828H155.664V28.8778L166.418 29.1031V29.1125ZM41.4388 12.1521V16.6599H41.5781C44.1526 13.1413 46.8411 11.3915 49.6816 11.3915C50.0965 11.3915 50.6791 11.4415 51.4233 11.5605V19.9061C50.1091 19.7245 48.8995 19.6463 47.8006 19.6463C45.052 19.6463 43.2628 20.6229 42.43 22.5763L31.1535 22.8205V12.1521H41.4388ZM41.8821 26.483V39.0922H31.1535V26.2576L41.8821 26.483ZM74.1568 39.0922V35.5455H74.0048C72.7033 37.0731 71.443 38.1938 70.2175 38.9138C68.9951 39.6431 67.567 40.0031 65.914 40.0031C62.684 40.0031 60.1095 38.6946 58.1778 36.0745C56.4551 33.733 55.5083 30.6276 55.331 26.7679L65.8981 26.9901C66.1926 30.6276 67.6113 32.4433 70.17 32.4433C72.488 32.4433 73.7926 30.684 74.0903 27.1623L83.7835 27.3658L84.8506 27.3877V39.0891H74.16L74.1568 39.0922ZM55.4893 22.3008C55.8566 19.4115 56.7655 17.0167 58.2158 15.1135C60.1728 12.556 62.7346 11.2756 65.914 11.2756C67.605 11.2756 69.0585 11.6043 70.2301 12.2836C71.4176 12.9535 72.6526 14.0335 73.9288 15.5204H74.0808V12.1521H84.8475V21.6654L73.742 21.9064C73.1466 19.8153 71.9053 18.7729 70.0148 18.7729C68.1243 18.7729 66.7911 19.8685 66.2085 22.0692L55.4861 22.3008H55.4893ZM89.797 12.1553H100.298L102.958 21.2772L93.4323 21.4838L89.797 12.1584V12.1553ZM106.317 21.2052L108.958 12.1553H119.611L116.14 20.9923L106.317 21.2052ZM113.389 27.995L112.698 29.7511L109.031 39.0953H100.298L96.124 28.3894L95.8295 27.6287L113.392 28.0013L113.389 27.995ZM139.096 30.8656H148.159C147.984 31.4822 147.779 32.0645 147.551 32.6186C145.524 37.4988 141.414 39.9437 135.21 39.9437C130.894 39.9437 127.487 38.6445 124.975 36.0463C123.506 34.5375 122.464 32.6906 121.856 30.5056C121.65 29.7637 121.492 28.9842 121.381 28.1672L131.163 28.3738C131.223 29.579 131.413 30.5494 131.727 31.3195C132.414 33.0067 133.677 33.7079 135.365 33.7079C136.274 33.7079 137.094 33.4481 137.8 32.9191C138.199 32.6248 138.51 32.2836 138.731 31.8954C138.909 31.5855 139.032 31.2443 139.099 30.8687L139.096 30.8656Z" fill="white"/>
<path opacity="0.3" fill-rule="evenodd" clip-rule="evenodd" d="M190 24.6267C189.87 25.5846 186.599 26.0823 182.362 26.242L180.009 29.3003C180.491 29.2628 180.997 29.3504 181.371 29.5664V30.468C181.083 30.6339 180.719 30.7247 180.348 30.7403H180.339C180.266 30.7403 180.193 30.7403 180.123 30.7403H178.901L176.944 33.2853C177.454 33.2384 177.989 33.3323 178.388 33.5608V34.503C178.074 34.6846 177.675 34.7785 177.27 34.7879H177.26C177.216 34.7879 177.175 34.7879 177.131 34.7879H175.782L172.653 38.8511C172.086 39.5899 172.08 39.6212 171.149 39.7026C171.063 39.7089 170.981 39.7151 170.899 39.7245C170.291 39.7777 170.313 39.7871 170.522 39.399L172.789 34.1931L172.08 34.0554L172.887 33.9709L173.432 32.7187L172.716 32.5747L173.543 32.4683L174.103 31.1754L173.166 31.0753L174.227 30.8937L175.408 28.2517L0 24.5484L175.408 20.7607L174.227 18.1186L173.166 17.9371L174.122 17.8338L173.555 16.5472L172.716 16.4376L173.445 16.2936L172.897 15.0446L172.083 14.9601L172.799 14.8223L170.493 9.57895L170.522 9.604C170.319 9.23148 170.307 9.24087 170.905 9.29409C170.987 9.30035 171.073 9.30974 171.155 9.316C172.086 9.39739 172.092 9.42869 172.659 10.1675L175.788 14.2338H177.064C177.539 14.2119 178.024 14.3058 178.391 14.5187V15.4609C177.992 15.6895 177.454 15.7834 176.947 15.7364L178.907 18.2814H180.098C180.554 18.2595 181.023 18.3471 181.377 18.5538V19.4553C181 19.6713 180.497 19.7589 180.015 19.7214L182.368 22.7798C186.602 22.9394 189.877 23.4371 190.006 24.395V24.633L190 24.6267Z" fill="white"/>
</g>
<defs>
<clipPath id="clip0_2_62">
<rect width="190" height="40" fill="white"/>
</clipPath>
</defs>
</svg>
