<svg width="25" height="24" viewBox="0 0 25 24" fill="none" xmlns="http://www.w3.org/2000/svg">
<g id="pencil-line">
<path id="Vector" d="M12.5 20H21.5" stroke="white" stroke-width="2" stroke-linecap="round" stroke-linejoin="round"/>
<path id="Vector_2" d="M17 3.49998C17.3978 3.10216 17.9374 2.87866 18.5 2.87866C18.7786 2.87866 19.0544 2.93353 19.3118 3.04014C19.5692 3.14674 19.803 3.303 20 3.49998C20.197 3.69697 20.3532 3.93082 20.4598 4.18819C20.5665 4.44556 20.6213 4.72141 20.6213 4.99998C20.6213 5.27856 20.5665 5.55441 20.4598 5.81178C20.3532 6.06915 20.197 6.303 20 6.49998L7.5 19L3.5 20L4.5 16L17 3.49998Z" stroke="white" stroke-width="2" stroke-linecap="round" stroke-linejoin="round"/>
<path id="Vector_3" d="M15.5 5L18.5 8" stroke="white" stroke-width="2" stroke-linecap="round" stroke-linejoin="round"/>
</g>
</svg>
